<?xml version="1.0" standalone="no"?><!DOCTYPE svg PUBLIC "-//W3C//DTD SVG 1.1//EN" "http://www.w3.org/Graphics/SVG/1.1/DTD/svg11.dtd"><svg t="1776220189028" class="icon" viewBox="0 0 1024 1024" version="1.1" xmlns="http://www.w3.org/2000/svg" p-id="10459" xmlns:xlink="http://www.w3.org/1999/xlink" width="200" height="200"><path d="M512 70.62069 847.54432 70.62069C847.498063 70.62069 847.448276 953.342411 847.448276 953.342411 847.448276 953.360154 176.507445 953.37931 176.507445 953.37931 176.567543 953.37931 176.551724 512 176.551724 512L176.507445 285.609913 344.275862 70.62069 512 70.62069ZM298.748398 13.631891 113.369088 251.976722C108.548308 258.174852 105.931034 265.802999 105.931034 273.655172L105.931034 512 105.931034 953.249898C105.931034 992.29071 137.488984 1024 176.507445 1024L847.49259 1024C886.455437 1024 918.068966 992.339421 918.068966 953.342411L918.068966 70.657589C918.068966 31.604962 886.53771 0 847.54432 0L512 0 326.62069 0C315.724253 0 305.438155 5.030765 298.748398 13.631891ZM662.068966 494.344828C681.570339 494.344828 697.37931 478.535839 697.37931 459.034483 697.37931 439.533127 681.570339 423.724138 662.068966 423.724138L361.931034 423.724138C342.429678 423.724138 326.62069 439.533127 326.62069 459.034483 326.62069 478.535839 342.429678 494.344828 361.931034 494.344828L662.068966 494.344828ZM723.862069 670.896552C743.363443 670.896552 759.172414 655.087563 759.172414 635.586207 759.172414 616.084851 743.363443 600.275862 723.862069 600.275862L300.137931 600.275862C280.636575 600.275862 264.827586 616.084851 264.827586 635.586207 264.827586 655.087563 280.636575 670.896552 300.137931 670.896552L723.862069 670.896552ZM317.793103 247.314167C317.793103 247.205835 176.507445 247.172414 176.507445 247.172414L176.507445 317.793103 317.798665 317.793103C356.768839 317.793103 388.413793 286.26944 388.413793 247.314167L388.413793 70.62069 317.793103 70.62069 317.793103 247.314167Z" fill="#389BFF" p-id="10460"></path></svg>