<?xml version="1.0" standalone="no"?><!DOCTYPE svg PUBLIC "-//W3C//DTD SVG 1.1//EN" "http://www.w3.org/Graphics/SVG/1.1/DTD/svg11.dtd"><svg t="1777362116100" class="icon" viewBox="0 0 1024 1024" version="1.1" xmlns="http://www.w3.org/2000/svg" p-id="9679" xmlns:xlink="http://www.w3.org/1999/xlink" width="200" height="200"><path d="M51.2 51.2m153.6 0l609.28 0q153.6 0 153.6 153.6l0 609.28q0 153.6-153.6 153.6l-609.28 0q-153.6 0-153.6-153.6l0-609.28q0-153.6 153.6-153.6Z" fill="#F19149" opacity=".2" p-id="9680"></path><path d="M850.16576 491.05408a66.41152 66.41152 0 0 0-36.93056-113.3568l-133.96992-19.41504a66.63168 66.63168 0 0 1-50.176-36.352l-59.904-121.0624a66.71872 66.71872 0 0 0-119.51104 0l-59.904 121.0624a66.62656 66.62656 0 0 1-50.176 36.352l-133.9904 19.41504a66.41152 66.41152 0 0 0-36.93056 113.3568l96.94208 94.2336a66.34496 66.34496 0 0 1 19.16416 58.80832l-22.8864 133.06368a66.60096 66.60096 0 0 0 96.6912 70.05696l119.808-62.8224a66.80576 66.80576 0 0 1 62.02368 0l119.808 62.8224a66.60096 66.60096 0 0 0 96.6912-70.05696l-22.8864-133.06368a66.3552 66.3552 0 0 1 19.16416-58.82368z m-187.15648-6.74816l-129.69984 152.32512a52.736 52.736 0 0 1-73.07264 6.61504l-78.49472-64.05632a27.136 27.136 0 1 1 34.4576-41.984l76.93824 62.77632 128.39424-150.78912a27.17696 27.17696 0 0 1 41.47712 35.11296z" fill="#F19149" p-id="9681"></path></svg>