<?xml version="1.0" standalone="no"?><!DOCTYPE svg PUBLIC "-//W3C//DTD SVG 1.1//EN" "http://www.w3.org/Graphics/SVG/1.1/DTD/svg11.dtd"><svg t="1776184890323" class="icon" viewBox="0 0 1234 1024" version="1.1" xmlns="http://www.w3.org/2000/svg" p-id="23853" xmlns:xlink="http://www.w3.org/1999/xlink" width="241.015625" height="200"><path d="M10.872471 109.477647h767.909647c7.258353 0 10.902588 3.614118 10.902588 10.902588v65.957647c0 7.258353-3.614118 10.902588-10.902588 10.902589H10.872471c-7.228235 0-10.872471-3.614118-10.872471-10.902589v-65.957647c0-7.258353 3.614118-10.902588 10.872471-10.902588z" fill="#33A852" p-id="23854"></path><path d="M1196.995765 303.585882H780.589176l-10.270117 69.270589h426.61647a21.955765 21.955765 0 0 0 21.925647-21.925647v-25.419295c0-12.047059-9.788235-21.865412-21.865411-21.895529zM766.192941 400.564706l-41.050353 277.564235c0.180706 0-0.662588 3.403294-0.481882 3.312941l-40.056471 270.366118 4.065883 41.351529c0.813176 16.564706 14.004706 29.876706 30.569411 30.780236h346.654118a32.075294 32.075294 0 0 0 30.358588-28.943059L1184.436706 400.564706H766.192941z" fill="#2E6BBD" p-id="23855"></path><path d="M43.881412 234.315294l74.089412 750.682353c1.024 21.022118 17.769412 37.888 38.791529 39.002353h439.024941a40.658824 40.658824 0 0 0 38.4-36.653176L745.712941 234.224941 43.881412 234.315294z m327.981176 618.014118L284.009412 789.534118l0.572235-1.807059h27.919059v-34.575059c-9.938824 0-19.968 0.481882-29.936941-0.150588-14.787765-0.602353-29.545412-2.048-44.182589-4.336941a60.235294 60.235294 0 0 1-32.647529-18.221177 104.809412 104.809412 0 0 1 37.948235-36.080941 8.734118 8.734118 0 0 1 5.300706-0.301177c11.384471 2.56 22.889412 4.367059 34.514824 5.421177 25.539765 0.602353 51.049412-0.301176 76.649412-0.572235h11.745882v153.479529z m-10.721882-375.928471c-36.653176 58.458353-73.095529 117.037176-109.387294 175.736471a247.476706 247.476706 0 0 0-10.330353 22.889412 12.107294 12.107294 0 0 1-5.481412 5.089882A87.341176 87.341176 0 0 0 192.150588 716.498824a69.210353 69.210353 0 0 1-1.204706-75.113412c45.568-72.222118 92.882824-143.510588 139.294118-215.280941a9.216 9.216 0 0 1 11.745882-4.457412c15.480471 4.788706 29.063529 14.396235 38.731294 27.437176-6.927059 9.637647-13.854118 18.160941-19.57647 27.286589z m-3.734588-65.987765c-1.987765-0.933647-3.915294-1.957647-6.836706-3.403294 25.539765-14.456471 56.621176-15.058824 82.703059-1.65647a95.171765 95.171765 0 0 1 38.00847 34.816c38.942118 62.192941 78.004706 124.325647 117.157647 186.428235a14.576941 14.576941 0 0 1 0 17.829647c-8.734118 13.221647-23.190588 21.564235-38.972235 22.588235a12.227765 12.227765 0 0 1-8.553412-5.722353 23910.550588 23910.550588 0 0 1-92.28047-145.799529c-11.685647-18.522353-23.943529-36.743529-34.936471-55.657412a122.518588 122.518588 0 0 0-56.289882-49.423059z m226.394353 318.042353a83.124706 83.124706 0 0 1-61.409883 23.94353c-14.456471-0.903529-29.093647-0.150588-44.303059-0.150588v35.689411h29.816471l0.963765 2.168471-88.545883 61.138823v-151.491764c2.319059 0 5.270588-0.361412 8.222118-0.361412 27.226353 0 54.422588-0.933647 81.679059 0.150588a108.664471 108.664471 0 0 0 87.04-36.864c1.505882-1.776941 2.891294-3.644235 4.21647-5.571764 9.637647 25.118118 2.590118 53.579294-17.618823 71.348705h-0.060235zM391.830588 0a87.04 87.04 0 0 1 87.04 87.04h-174.140235A87.04 87.04 0 0 1 391.830588 0z" fill="#33A852" p-id="23856"></path><path d="M892.446118 206.787765h21.775058c36.050824 0 65.295059 29.214118 65.295059 65.295059h-152.395294c0-36.050824 29.244235-65.295059 65.325177-65.295059z" fill="#2E6BBD" p-id="23857"></path></svg>